<svg xmlns="http://www.w3.org/2000/svg" xmlns:xlink="http://www.w3.org/1999/xlink" version="1.1" class="marks" width="345" height="247" viewBox="0 0 345 247"><rect width="345" height="247" fill="white"/><g fill="none" stroke-miterlimit="10" transform="translate(39,10)"><g class="mark-group role-frame root" role="graphics-object" aria-roledescription="group mark container"><g transform="translate(0,0)"><path class="background" aria-hidden="true" d="M0.5,0.5h300v200h-300Z" stroke="#ddd"/><g><g class="mark-group role-axis" aria-hidden="true"><g transform="translate(0.5,200.5)"><path class="background" aria-hidden="true" d="M0,0h0v0h0Z" pointer-events="none"/><g><g class="mark-rule role-axis-grid" pointer-events="none"><line transform="translate(0,-200)" x2="0" y2="200" stroke="#ddd" stroke-width="1" opacity="1"/><line transform="translate(27,-200)" x2="0" y2="200" stroke="#ddd" stroke-width="1" opacity="1"/><line transform="translate(55,-200)" x2="0" y2="200" stroke="#ddd" stroke-width="1" opacity="1"/><line transform="translate(82,-200)" x2="0" y2="200" stroke="#ddd" stroke-width="1" opacity="1"/><line transform="translate(109,-200)" x2="0" y2="200" stroke="#ddd" stroke-width="1" opacity="1"/><line transform="translate(136,-200)" x2="0" y2="200" stroke="#ddd" stroke-width="1" opacity="1"/><line transform="translate(164,-200)" x2="0" y2="200" stroke="#ddd" stroke-width="1" opacity="1"/><line transform="translate(191,-200)" x2="0" y2="200" stroke="#ddd" stroke-width="1" opacity="1"/><line transform="translate(218,-200)" x2="0" y2="200" stroke="#ddd" stroke-width="1" opacity="1"/><line transform="translate(245,-200)" x2="0" y2="200" stroke="#ddd" stroke-width="1" opacity="1"/><line transform="translate(273,-200)" x2="0" y2="200" stroke="#ddd" stroke-width="1" opacity="1"/><line transform="translate(300,-200)" x2="0" y2="200" stroke="#ddd" stroke-width="1" opacity="1"/></g></g><path class="foreground" aria-hidden="true" d="" pointer-events="none" display="none"/></g></g><g class="mark-group role-axis" aria-hidden="true"><g transform="translate(0.5,0.5)"><path class="background" aria-hidden="true" d="M0,0h0v0h0Z" pointer-events="none"/><g><g class="mark-rule role-axis-grid" pointer-events="none"><line transform="translate(0,200)" x2="300" y2="0" stroke="#ddd" stroke-width="1" opacity="1"/><line transform="translate(0,150)" x2="300" y2="0" stroke="#ddd" stroke-width="1" opacity="1"/><line transform="translate(0,100)" x2="300" y2="0" stroke="#ddd" stroke-width="1" opacity="1"/><line transform="translate(0,50)" x2="300" y2="0" stroke="#ddd" stroke-width="1" opacity="1"/><line transform="translate(0,0)" x2="300" y2="0" stroke="#ddd" stroke-width="1" opacity="1"/></g></g><path class="foreground" aria-hidden="true" d="" pointer-events="none" display="none"/></g></g><g class="mark-group role-axis" role="graphics-symbol" aria-roledescription="axis" aria-label="X-axis titled 'time' for a linear scale with values from 0 to 22"><g transform="translate(0.5,200.5)"><path class="background" aria-hidden="true" d="M0,0h0v0h0Z" pointer-events="none"/><g><g class="mark-rule role-axis-tick" pointer-events="none"><line transform="translate(0,0)" x2="0" y2="5" stroke="#888" stroke-width="1" opacity="1"/><line transform="translate(27,0)" x2="0" y2="5" stroke="#888" stroke-width="1" opacity="1"/><line transform="translate(55,0)" x2="0" y2="5" stroke="#888" stroke-width="1" opacity="1"/><line transform="translate(82,0)" x2="0" y2="5" stroke="#888" stroke-width="1" opacity="1"/><line transform="translate(109,0)" x2="0" y2="5" stroke="#888" stroke-width="1" opacity="1"/><line transform="translate(136,0)" x2="0" y2="5" stroke="#888" stroke-width="1" opacity="1"/><line transform="translate(164,0)" x2="0" y2="5" stroke="#888" stroke-width="1" opacity="1"/><line transform="translate(191,0)" x2="0" y2="5" stroke="#888" stroke-width="1" opacity="1"/><line transform="translate(218,0)" x2="0" y2="5" stroke="#888" stroke-width="1" opacity="1"/><line transform="translate(245,0)" x2="0" y2="5" stroke="#888" stroke-width="1" opacity="1"/><line transform="translate(273,0)" x2="0" y2="5" stroke="#888" stroke-width="1" opacity="1"/><line transform="translate(300,0)" x2="0" y2="5" stroke="#888" stroke-width="1" opacity="1"/></g><g class="mark-text role-axis-label" pointer-events="none"><text text-anchor="start" transform="translate(0,15)" font-family="sans-serif" font-size="10px" fill="#000" opacity="1">0</text><text text-anchor="middle" transform="translate(27.272727272727273,15)" font-family="sans-serif" font-size="10px" fill="#000" opacity="1">2</text><text text-anchor="middle" transform="translate(54.54545454545455,15)" font-family="sans-serif" font-size="10px" fill="#000" opacity="1">4</text><text text-anchor="middle" transform="translate(81.81818181818181,15)" font-family="sans-serif" font-size="10px" fill="#000" opacity="1">6</text><text text-anchor="middle" transform="translate(109.0909090909091,15)" font-family="sans-serif" font-size="10px" fill="#000" opacity="1">8</text><text text-anchor="middle" transform="translate(136.36363636363635,15)" font-family="sans-serif" font-size="10px" fill="#000" opacity="1">10</text><text text-anchor="middle" transform="translate(163.63636363636363,15)" font-family="sans-serif" font-size="10px" fill="#000" opacity="1">12</text><text text-anchor="middle" transform="translate(190.9090909090909,15)" font-family="sans-serif" font-size="10px" fill="#000" opacity="1">14</text><text text-anchor="middle" transform="translate(218.1818181818182,15)" font-family="sans-serif" font-size="10px" fill="#000" opacity="1">16</text><text text-anchor="middle" transform="translate(245.45454545454547,15)" font-family="sans-serif" font-size="10px" fill="#000" opacity="1">18</text><text text-anchor="middle" transform="translate(272.7272727272727,15)" font-family="sans-serif" font-size="10px" fill="#000" opacity="1">20</text><text text-anchor="end" transform="translate(300,15)" font-family="sans-serif" font-size="10px" fill="#000" opacity="1">22</text></g><g class="mark-rule role-axis-domain" pointer-events="none"><line transform="translate(0,0)" x2="300" y2="0" stroke="#888" stroke-width="1" opacity="1"/></g><g class="mark-text role-axis-title" pointer-events="none"><text text-anchor="middle" transform="translate(150,30)" font-family="sans-serif" font-size="11px" font-weight="bold" fill="#000" opacity="1">time</text></g></g><path class="foreground" aria-hidden="true" d="" pointer-events="none" display="none"/></g></g><g class="mark-group role-axis" role="graphics-symbol" aria-roledescription="axis" aria-label="Y-axis titled 'Gbps' for a linear scale with values from 0 to 20"><g transform="translate(0.5,0.5)"><path class="background" aria-hidden="true" d="M0,0h0v0h0Z" pointer-events="none"/><g><g class="mark-rule role-axis-tick" pointer-events="none"><line transform="translate(0,200)" x2="-5" y2="0" stroke="#888" stroke-width="1" opacity="1"/><line transform="translate(0,150)" x2="-5" y2="0" stroke="#888" stroke-width="1" opacity="1"/><line transform="translate(0,100)" x2="-5" y2="0" stroke="#888" stroke-width="1" opacity="1"/><line transform="translate(0,50)" x2="-5" y2="0" stroke="#888" stroke-width="1" opacity="1"/><line transform="translate(0,0)" x2="-5" y2="0" stroke="#888" stroke-width="1" opacity="1"/></g><g class="mark-text role-axis-label" pointer-events="none"><text text-anchor="end" transform="translate(-7,203)" font-family="sans-serif" font-size="10px" fill="#000" opacity="1">0</text><text text-anchor="end" transform="translate(-7,153)" font-family="sans-serif" font-size="10px" fill="#000" opacity="1">5</text><text text-anchor="end" transform="translate(-7,103)" font-family="sans-serif" font-size="10px" fill="#000" opacity="1">10</text><text text-anchor="end" transform="translate(-7,53)" font-family="sans-serif" font-size="10px" fill="#000" opacity="1">15</text><text text-anchor="end" transform="translate(-7,3)" font-family="sans-serif" font-size="10px" fill="#000" opacity="1">20</text></g><g class="mark-rule role-axis-domain" pointer-events="none"><line transform="translate(0,200)" x2="0" y2="-200" stroke="#888" stroke-width="1" opacity="1"/></g><g class="mark-text role-axis-title" pointer-events="none"><text text-anchor="middle" transform="translate(-22.43333339691162,100) rotate(-90) translate(0,-2)" font-family="sans-serif" font-size="11px" font-weight="bold" fill="#000" opacity="1">Gbps</text></g></g><path class="foreground" aria-hidden="true" d="" pointer-events="none" display="none"/></g></g><g class="mark-line role-mark layer_0_marks" role="graphics-object" aria-roledescription="line mark container"><path aria-label="time: 1; Gbps: 19" role="graphics-symbol" aria-roledescription="line mark" d="M13.636363636363637,10.000000000000009L27.272727272727273,11.99999999999999L40.90909090909091,13.99999999999999L54.54545454545455,13.99999999999999L68.18181818181817,11.00000000000001L81.81818181818181,8.999999999999986L95.45454545454545,43.99999999999999L109.0909090909091,36.999999999999986L122.72727272727273,36.999999999999986L136.36363636363635,36.00000000000001L150,60.00000000000001L163.63636363636363,61.999999999999986L177.27272727272728,27L190.9090909090909,23.99999999999998L204.54545454545453,47L218.1818181818182,52L231.8181818181818,47L245.45454545454547,46L259.0909090909091,19.999999999999996L272.7272727272727,21.000000000000018L286.3636363636364,46" stroke="#4c78a8" stroke-width="2"/></g><g class="mark-rule role-mark layer_1_marks" role="graphics-symbol" aria-roledescription="rule mark container"><line transform="translate(136.36363636363635,0)" x2="0" y2="200" stroke="lightgray" stroke-width="1" stroke-dasharray="5,5" opacity="0.7"/><line transform="translate(136.36363636363635,0)" x2="0" y2="200" stroke="lightgray" stroke-width="1" stroke-dasharray="5,5" opacity="0.7"/><line transform="translate(136.36363636363635,0)" x2="0" y2="200" stroke="lightgray" stroke-width="1" stroke-dasharray="5,5" opacity="0.7"/><line transform="translate(136.36363636363635,0)" x2="0" y2="200" stroke="lightgray" stroke-width="1" stroke-dasharray="5,5" opacity="0.7"/><line transform="translate(136.36363636363635,0)" x2="0" y2="200" stroke="lightgray" stroke-width="1" stroke-dasharray="5,5" opacity="0.7"/><line transform="translate(136.36363636363635,0)" x2="0" y2="200" stroke="lightgray" stroke-width="1" stroke-dasharray="5,5" opacity="0.7"/><line transform="translate(136.36363636363635,0)" x2="0" y2="200" stroke="lightgray" stroke-width="1" stroke-dasharray="5,5" opacity="0.7"/><line transform="translate(136.36363636363635,0)" x2="0" y2="200" stroke="lightgray" stroke-width="1" stroke-dasharray="5,5" opacity="0.7"/><line transform="translate(136.36363636363635,0)" x2="0" y2="200" stroke="lightgray" stroke-width="1" stroke-dasharray="5,5" opacity="0.7"/><line transform="translate(136.36363636363635,0)" x2="0" y2="200" stroke="lightgray" stroke-width="1" stroke-dasharray="5,5" opacity="0.7"/><line transform="translate(136.36363636363635,0)" x2="0" y2="200" stroke="lightgray" stroke-width="1" stroke-dasharray="5,5" opacity="0.7"/><line transform="translate(136.36363636363635,0)" x2="0" y2="200" stroke="lightgray" stroke-width="1" stroke-dasharray="5,5" opacity="0.7"/><line transform="translate(136.36363636363635,0)" x2="0" y2="200" stroke="lightgray" stroke-width="1" stroke-dasharray="5,5" opacity="0.7"/><line transform="translate(136.36363636363635,0)" x2="0" y2="200" stroke="lightgray" stroke-width="1" stroke-dasharray="5,5" opacity="0.7"/><line transform="translate(136.36363636363635,0)" x2="0" y2="200" stroke="lightgray" stroke-width="1" stroke-dasharray="5,5" opacity="0.7"/><line transform="translate(136.36363636363635,0)" x2="0" y2="200" stroke="lightgray" stroke-width="1" stroke-dasharray="5,5" opacity="0.7"/><line transform="translate(136.36363636363635,0)" x2="0" y2="200" stroke="lightgray" stroke-width="1" stroke-dasharray="5,5" opacity="0.7"/><line transform="translate(136.36363636363635,0)" x2="0" y2="200" stroke="lightgray" stroke-width="1" stroke-dasharray="5,5" opacity="0.7"/><line transform="translate(136.36363636363635,0)" x2="0" y2="200" stroke="lightgray" stroke-width="1" stroke-dasharray="5,5" opacity="0.7"/><line transform="translate(136.36363636363635,0)" x2="0" y2="200" stroke="lightgray" stroke-width="1" stroke-dasharray="5,5" opacity="0.7"/><line transform="translate(136.36363636363635,0)" x2="0" y2="200" stroke="lightgray" stroke-width="1" stroke-dasharray="5,5" opacity="0.7"/></g></g><path class="foreground" aria-hidden="true" d="" display="none"/></g></g></g></svg>